<?xml version="1.0" encoding="UTF-8"?>
<svg width="293px" height="169px" viewBox="0 0 293 169" version="1.1" xmlns="http://www.w3.org/2000/svg" xmlns:xlink="http://www.w3.org/1999/xlink">
    <!-- Generator: Sketch 56.3 (81716) - https://sketch.com -->
    <title>Group</title>
    <desc>Created with Sketch.</desc>
    <g id="coach-de-salud" stroke="none" stroke-width="1" fill="none" fill-rule="evenodd">
        <g id="4.1_Asesor_Salud_Formularios_sin_form" transform="translate(-38.000000, -242.000000)" fill-rule="nonzero">
            <g id="Group" transform="translate(38.000000, 242.000000)">
                <path d="M222.324219,51.75 L282.5,51.75 C288.29899,51.75 293,56.4510101 293,62.25 C293,68.0489899 288.29899,72.75 282.5,72.75 L242.01123,72.75 L222.324219,51.75 Z" id="Rectangle-Copy-5" fill="#E3F3FA"></path>
                <path d="M210.763235,137.75 L249.579102,137.75 C255.378091,137.75 260.079102,142.45101 260.079102,148.25 C260.079102,154.04899 255.378091,158.75 249.579102,158.75 L204.516602,158.75 L210.041504,149.171387 L210.763235,137.75 Z" id="Rectangle-Copy-9" fill="#E3F3FA"></path>
                <path d="M0,67.75 L82.5,67.75 C88.2989899,67.75 93,72.4510101 93,78.25 C93,84.0489899 88.2989899,88.75 82.5,88.75 L20.0888672,88.75 L0,67.75 Z" id="Rectangle-Copy-6" fill="#E3F3FA" transform="translate(46.500000, 78.250000) scale(1, -1) rotate(-180.000000) translate(-46.500000, -78.250000) "></path>
                <path d="M42,30.75 L75.1906551,30.75 C80.989645,30.75 85.6906551,35.4510101 85.6906551,41.25 C85.6906551,47.0489899 80.989645,51.75 75.1906551,51.75 L62.0888672,51.75 L42,30.75 Z" id="Rectangle-Copy-8" fill="#E3F3FA" transform="translate(63.845328, 41.250000) scale(1, -1) rotate(-180.000000) translate(-63.845328, -41.250000) "></path>
                <path d="M20,119.75 L100.5,119.75 C106.29899,119.75 111,124.45101 111,130.25 C111,136.04899 106.29899,140.75 100.5,140.75 L23.7678649,140.75 L20,119.75 Z" id="Rectangle-Copy-7" fill="#E3F3FA" transform="translate(65.500000, 130.250000) scale(1, -1) rotate(-180.000000) translate(-65.500000, -130.250000) "></path>
                <path d="M160.133446,60.945861 C154.069023,60.945861 149.133446,56.0102838 149.133446,49.945861 C149.133446,43.8814381 154.069023,38.945861 160.133446,38.945861 C166.197869,38.945861 171.133446,43.8814381 171.133446,49.945861 C171.133446,56.0102838 166.197869,60.945861 160.133446,60.945861 L160.133446,60.945861 Z" id="Path" fill="#26AAE2"></path>
                <path d="M98.7192659,167.227005 C87.5590308,163.428698 79.5295162,152.84273 79.5295162,140.378147 C79.5295162,124.722043 92.1975799,112.031373 107.826692,112.031373 C109.033862,112.031373 110.223367,112.107083 111.390733,112.254022 L112.952051,102.278905 L104.943677,102.27819 C97.3230116,101.927484 94.5045256,99.7322777 94.9980482,92.145939 C95.0237106,91.7514609 95.3511543,91.4446267 95.7464662,91.4446267 L105.771963,91.4446267 C105.157881,88.3355155 105.965121,85.2295305 107.837407,82.2662583 C108.3145,81.5111616 108.825424,80.8342548 109.337433,80.2439213 C109.648132,79.8856927 109.893819,79.6325863 110.022652,79.5123955 L129.466518,59.9095898 C129.72614,59.6862772 129.940976,59.4971718 130.396286,59.0931828 L130.446509,59.0486212 C135.135837,54.8880078 137.863905,53.8850822 142.905024,56.2458294 C144.970343,57.4785892 150.412579,61.6192365 158.254926,67.8355393 C158.479769,68.0137632 158.594575,68.1048404 158.934038,68.3742844 C162.360651,71.0948311 165.991531,74.0093881 169.595627,76.9239027 C170.857021,77.9439509 172.024989,78.8911508 173.070633,79.7412324 C173.436644,80.0387901 173.761234,80.3029642 174.04079,80.5307209 C174.095996,80.5757154 174.140442,80.6119403 174.176667,80.6414659 L181.697036,80.6444605 C181.918322,80.6646457 182.280863,80.7211867 182.739397,80.8322796 C183.499293,81.0163858 184.259928,81.2925926 184.975965,81.6824029 C187.07017,82.8224871 188.355818,84.6876589 188.355818,87.3538185 C188.355818,90.0105245 187.081864,91.9281837 185.002629,93.17307 C184.290453,93.5994663 183.533036,93.9156211 182.776024,94.1401037 C182.318827,94.2756797 181.95729,94.351674 181.736853,94.3837354 C181.326952,94.4433532 180.946332,94.1593927 180.886715,93.749492 C180.827097,93.3395913 181.111057,92.9589714 181.520958,92.8993536 C181.674077,92.8770833 181.966266,92.8156656 182.349572,92.702001 C182.993398,92.5110825 183.63682,92.2425107 184.232094,91.8861064 C185.888429,90.8944195 186.855818,89.4382281 186.855818,87.3538185 C186.855818,85.2798754 185.900123,83.8933887 184.258758,82.99983 C183.667345,82.6778652 183.027141,82.44539 182.386198,82.2901035 C182.00423,82.1975608 181.713046,82.1521484 181.628905,82.1413596 L174.472057,82.1413596 C172.951686,87.687643 173.483921,96.4591447 175.659966,107.535714 C176.006905,109.301714 176.392021,111.106978 176.811884,112.944805 C179.096643,112.348667 181.493778,112.031373 183.964904,112.031373 C199.593465,112.031373 212.263235,124.722649 212.263235,140.378147 C212.263235,156.034068 199.593044,168.727236 183.964904,168.727236 C183.730795,168.727236 183.497349,168.724388 183.2646,168.718724 C183.228116,168.724178 183.190773,168.727005 183.15277,168.727005 L148.875357,168.727005 C148.461144,168.727005 148.125357,168.391218 148.125357,167.977005 C148.125357,167.562791 148.461144,167.227005 148.875357,167.227005 L174.857888,167.227005 C165.177937,163.932416 157.852826,155.531131 156.080055,145.226976 L135.819276,145.226976 C135.783154,145.226976 135.747628,145.224422 135.712869,145.219486 C133.419934,158.569728 121.807798,168.727236 107.826692,168.727236 C107.132477,168.727236 106.444103,168.702193 105.76242,168.652959 C105.66401,168.700411 105.553652,168.727005 105.437082,168.727005 L76.0851635,168.727005 C75.67095,168.727005 75.3351635,168.391218 75.3351635,167.977005 C75.3351635,167.562791 75.67095,167.227005 76.0851635,167.227005 L98.7192659,167.227005 Z M128.225384,88.1963326 L109.292554,82.7785794 C109.229631,82.8734321 109.167248,82.9697412 109.105496,83.0674758 C105.752662,88.3740166 106.1898,93.9944707 113.104596,99.4179936 C113.95905,100.088172 114.908346,100.747829 115.91479,101.372679 L131.027493,109.475419 C131.220335,109.578812 131.358409,109.761266 131.405515,109.974947 L136.336973,132.344942 L148.007158,132.344942 L145.260883,113.646363 C145.254665,113.521672 145.235725,113.275949 145.197941,112.92669 C145.134261,112.338055 145.039528,111.680509 144.907718,110.971616 C144.531304,108.947214 143.934861,106.923972 143.073205,105.042968 C142.307794,103.372067 141.366416,101.893949 140.247464,100.67194 L128.225384,88.1963326 Z M128.405204,86.6875832 L143.335953,71.6034722 C143.585473,71.3513895 143.977467,71.3085666 144.275529,71.5008296 L172.106738,89.4531965 C172.136417,86.4444825 172.442401,83.832297 173.049489,81.6578983 C172.780406,81.438701 172.471021,81.1869172 172.124412,80.9051333 C171.079741,80.0558428 169.912776,79.1094567 168.652433,78.0902584 C165.051565,75.1783544 161.424044,72.2664928 158.001338,69.5490488 C157.662331,69.2799663 157.547686,69.1890171 157.323155,69.0110404 C149.556569,62.85479 144.11673,58.7159662 142.203019,57.5692618 C137.911221,55.5630015 135.732403,56.3640052 131.442028,60.1706469 L131.391824,60.2151917 C130.930835,60.624219 130.712007,60.8168391 130.488123,61.00631 L111.068316,80.5875029 C110.956078,80.6927946 110.745949,80.9092684 110.470599,81.2267404 C110.395903,81.3128638 110.321178,81.401088 110.24656,81.4913685 L128.405204,86.6875832 Z M106.180105,92.9446267 L96.4580249,92.9446267 C96.2221954,98.9651785 98.3861032,100.47485 104.978155,100.778983 L112.411778,100.778983 C112.333441,100.718845 112.255805,100.658604 112.17887,100.598261 C109.012211,98.1145371 107.081583,95.5363078 106.180105,92.9446267 Z M114.477217,102.234799 L112.873496,112.48083 C122.884706,114.286049 131.066017,121.365811 134.448354,130.74547 L130.01489,110.63447 L115.165584,102.671337 C114.931636,102.526487 114.702188,102.380973 114.477217,102.234799 Z M134.613583,141.129305 L107.747662,141.129305 C107.287207,141.129305 106.93548,140.718243 107.006684,140.263326 L111.15864,113.736845 C110.066997,113.601224 108.95499,113.531373 107.826692,113.531373 C93.0266063,113.531373 81.0295162,125.549872 81.0295162,140.378147 C81.0295162,155.206884 93.0270666,167.227236 107.826692,167.227236 C122.375604,167.227236 134.216574,155.610697 134.613583,141.129305 Z M112.641431,113.963472 L108.624185,139.629305 L134.613646,139.629305 C134.262551,126.783328 124.906051,116.192389 112.641431,113.963472 Z M148.669663,133.844942 L136.569276,133.844942 L136.569276,143.726976 L155.641618,143.726976 C155.596272,143.246487 155.494441,142.659025 155.310532,141.992205 C154.854392,140.338327 154.008447,138.692331 152.674242,137.149433 C151.619866,135.930135 150.294678,134.820037 148.669655,133.844942 Z M173.154655,101.952239 C173.063944,101.991183 172.964006,102.01275 172.859032,102.01275 L143.140303,102.01275 C143.61751,102.767629 144.048953,103.571308 144.436931,104.418268 C145.354605,106.42156 145.985028,108.560065 146.382442,110.697409 C146.521471,111.445128 146.621603,112.140149 146.68924,112.765357 C146.730246,113.144404 146.751404,113.418899 146.751972,113.499896 L149.565614,132.633815 C151.270234,133.672526 152.677217,134.859638 153.808857,136.168286 C154.580749,137.060916 155.207636,137.987927 155.70383,138.933655 C156.306013,126.91451 164.380884,116.868368 175.368775,113.362939 C174.938123,111.481577 174.543366,109.633255 174.1881,107.824869 C173.788339,105.789995 173.442935,103.830917 173.154655,101.952239 Z M172.943427,100.517446 C172.454361,97.044503 172.172017,93.8631657 172.115089,91.0045377 C171.934997,91.0366829 171.742779,91.0034155 171.576922,90.8964307 L143.973876,73.0912391 L129.674044,87.5379531 L141.340587,99.644944 C141.596585,99.9244381 141.843282,100.214519 142.080871,100.51472 C142.098959,100.513414 142.117225,100.51275 142.135647,100.51275 L172.859032,100.51275 C172.887564,100.51275 172.915724,100.514343 172.943427,100.517446 Z M175.710076,114.82927 C164.949867,118.316142 157.167728,128.436157 157.167728,140.378147 C157.167728,155.206479 169.16603,167.227236 183.964904,167.227236 C198.764008,167.227236 210.763235,155.206249 210.763235,140.378147 C210.763235,125.550507 198.764468,113.531373 183.964904,113.531373 C181.610548,113.531373 179.327093,113.835549 177.151563,114.40682 C177.752341,116.950779 178.416796,119.55268 179.136076,122.195224 C180.347452,126.645667 181.645555,130.963464 182.943568,134.980135 C183.397766,136.385641 183.819434,137.652894 184.197719,138.760866 C184.329995,139.148295 184.447361,139.488032 184.54846,139.777449 C184.608929,139.950554 184.65042,140.068091 184.671578,140.127434 C184.810682,140.517591 184.607164,140.946643 184.217006,141.085747 C183.826849,141.224852 183.397797,141.021333 183.258693,140.631176 C183.23647,140.568845 183.193911,140.448284 183.132372,140.272114 C183.030123,139.979406 182.911606,139.636337 182.778176,139.245528 C182.397299,138.129965 181.973042,136.85493 181.516246,135.441384 C180.211416,131.403621 178.906677,127.063751 177.688734,122.589179 C176.972465,119.957696 176.310051,117.365575 175.710076,114.82927 Z" id="Combined-Shape" fill="#2A2A2A"></path>
                <path d="M167.577007,50.2407178 C167.577007,56.4137425 162.581394,61.4189438 156.417959,61.4189438 C150.255295,61.4189438 145.258912,56.4133555 145.258912,50.2407178 C145.258912,44.0675046 150.254714,39.0636493 156.417959,39.0636493 C162.581974,39.0636493 167.577007,44.0671177 167.577007,50.2407178 Z M166.077007,50.2407178 C166.077007,44.8949787 161.75298,40.5636493 156.417959,40.5636493 C151.083682,40.5636493 146.758912,44.8953913 146.758912,50.2407178 C146.758912,55.5855459 151.084341,59.9189438 156.417959,59.9189438 C161.752322,59.9189438 166.077007,55.5859585 166.077007,50.2407178 Z" id="Stroke-5" fill="#2A2A2A"></path>
                <path d="M198.010749,47.5634078 L163.55105,12.8634235 C163.467298,12.7815967 163.292733,12.6257499 163.036477,12.420559 C162.602545,12.0730993 162.104483,11.7245943 161.551892,11.3994539 C157.943518,9.27631342 154.186494,9.20083653 150.609436,12.5044767 C150.475234,12.6284207 150.34158,12.7570369 150.208489,12.8903732 C147.236858,15.8674795 133.401156,29.6413465 112.18484,50.7491177 L112.161688,50.7721503 C103.71083,59.1797701 94.6563452,68.1864902 85.6018608,77.1922507 C82.4327919,80.3442662 79.4900848,83.2710181 76.8491934,85.8974986 C75.377839,87.3608155 75.377839,87.3608155 74.396935,88.3363411 L73.5292086,89.1992982 C73.2355069,89.4913806 72.7606349,89.4900679 72.4685525,89.1963661 C72.1764701,88.9026644 72.1777828,88.4277924 72.4714846,88.13571 L73.3391969,87.272767 C74.3200931,86.297249 74.3200931,86.297249 75.7914391,84.8339405 C78.4323175,82.207473 81.3750111,79.2807344 84.544066,76.1287329 C93.3843685,67.3360017 102.22467,58.5423573 110.503161,50.3062895 L95.3760498,34.8502494 C95.2922802,34.7684185 95.1176859,34.6125678 94.8613913,34.407373 C94.4273971,34.0599084 93.9292716,33.7113987 93.3766205,33.3862541 C89.7701328,31.264427 86.0152479,31.1877506 82.4404797,34.4855821 C82.3042462,34.6112617 82.1685772,34.7417557 82.0334034,34.8772005 C78.9147937,38.0010497 69.2613068,48.6683264 67.7168625,50.2013198 C67.1759049,50.7382666 66.7633568,51.1462342 66.4620933,51.4427255 C66.2805367,51.6214061 66.1761012,51.7235285 66.131574,51.766677 C65.8341117,52.0549288 65.3592967,52.0474622 65.0710449,51.75 C64.7827931,51.4525378 64.7902597,50.9777227 65.0877219,50.6894709 C65.1292002,50.649277 65.2309504,50.5497805 65.4099345,50.3736316 C65.709572,50.0787404 66.1206294,49.672247 66.6601563,49.1367203 C68.2028109,47.6055034 77.8547401,36.9397813 80.9717674,33.8175171 C81.1213657,33.6676188 81.2719095,33.5228174 81.4233851,33.3830766 C85.5499625,29.5761844 90.0136265,29.6673344 94.1372476,32.0934098 C94.7549953,32.4568531 95.3113699,32.8461163 95.7988769,33.2364244 C96.0954829,33.4738933 96.3065895,33.6623366 96.4361336,33.7891468 L111.566569,49.2483227 C132.531424,28.3906038 146.197744,14.7852322 149.146853,11.8306898 C149.294232,11.6830392 149.442528,11.5403338 149.591727,11.4025389 C153.720519,7.58933622 158.18679,7.67906156 162.312573,10.1066415 C162.930269,10.470089 163.486587,10.8593568 163.974037,11.24967 C164.270609,11.4871427 164.481689,11.6755899 164.607346,11.7984778 L199.072536,46.5038716 C199.674984,45.9023205 200.205267,45.3720875 200.659563,44.9169541 C200.806942,44.7693036 200.955238,44.6265982 201.104437,44.4888032 C205.23323,40.6756006 209.699501,40.7653259 213.825283,43.1929058 C214.442979,43.5563534 214.999297,43.9456212 215.486747,44.3359343 C215.783319,44.5734071 215.994399,44.7618543 216.123878,44.8886189 L242.593061,71.9320916 C242.882794,72.228111 242.877698,72.7029574 242.581679,72.9926906 C242.285659,73.2824239 241.810813,73.2773279 241.52108,72.9813084 L215.06376,45.9496879 C214.980008,45.8678611 214.805443,45.7120143 214.549187,45.5068234 C214.115255,45.1593637 213.617193,44.8108587 213.064602,44.4857183 C209.456228,42.3625778 205.699204,42.2871009 202.122147,45.5907411 C201.987945,45.7146851 201.85429,45.8433013 201.721199,45.9766376 C199.07078,48.6319404 193.839322,53.8381406 186.7817,60.8481045 L186.737185,60.8923192 C183.044375,64.5601705 179.087817,68.4872331 175.131262,72.4124564 C173.746471,73.7862819 172.460592,75.0617483 171.306597,76.2062233 C170.663653,76.8438456 170.663653,76.8438456 170.23502,77.2688934 L169.855828,77.6448912 C169.561688,77.9365318 169.086818,77.9345053 168.795178,77.6403648 C168.503537,77.3462243 168.505564,76.8713549 168.799704,76.5797143 L169.178834,76.2037783 C169.607433,75.7787641 169.607433,75.7787641 170.250339,75.1411787 C171.404277,73.9967605 172.690097,72.7213526 174.074827,71.3475883 C178.031189,67.4225554 181.987548,63.4956901 185.680127,59.8280686 L185.72464,59.7838571 C190.902818,54.6406452 195.097901,50.4684689 198.010749,47.5634078 Z" id="Combined-Shape" fill="#2A2A2A"></path>
                <path d="M237.50358,13.1413898 C240.619696,14.3395777 242.594477,17.0339639 242.806353,21.2134824 C242.801093,21.4858361 242.7663,21.940293 242.677951,22.5181723 C242.531008,23.4792996 242.281007,24.4417902 241.900337,25.3480824 C240.779775,28.0158963 238.763891,29.6662808 235.72256,29.6662808 L204.705735,29.6662808 C204.413289,29.6602861 203.925417,29.6203864 203.305161,29.5185538 C202.274107,29.3492769 201.241745,29.0606987 200.270521,28.6211594 C197.431669,27.3364026 195.688776,25.0397687 195.692371,21.6589536 C195.689148,21.6250638 195.686017,21.5841384 195.682758,21.5226766 C195.626523,20.4621581 195.793749,19.1844691 196.38176,17.9377667 C197.418192,15.7403191 199.482619,14.3613839 202.705835,14.1964734 C202.779083,13.6962507 202.881945,13.1415192 203.019548,12.5454891 C203.416903,10.8243495 204.020237,9.10238317 204.874815,7.48886519 C207.343565,2.82764807 211.375633,9.9475983e-14 217.236074,9.9475983e-14 C219.459118,9.9475983e-14 222.486626,0.624957029 225.097456,2.09819205 C228.842112,4.21122132 231.156441,7.71772067 231.438239,12.799763 C233.185924,12.3166758 235.535616,12.3846816 237.50358,13.1413898 Z M235.72256,28.1662808 C238.093003,28.1662808 239.61201,26.922685 240.517379,24.7671984 C240.845785,23.9853354 241.065592,23.1390883 241.19518,22.2914779 C241.272748,21.7841146 241.302577,21.3944939 241.307471,21.2373041 C241.126864,17.7056123 239.530803,15.5279508 236.965236,14.5414561 C234.950468,13.7667509 232.419721,13.8538264 231.053478,14.5387933 C230.554756,14.7888284 229.967344,14.4262261 229.967344,13.8683356 C229.967344,8.76044026 227.901619,5.40285193 224.3603,3.40456138 C222.002479,2.07409408 219.221369,1.5 217.236074,1.5 C211.975737,1.5 208.425458,3.98977487 206.200373,8.19092933 C205.412109,9.6792414 204.851011,11.2806644 204.481104,12.8829142 C204.351639,13.4436914 204.255512,13.9635713 204.187863,14.4284977 C204.147901,14.7031378 204.126513,14.8952073 204.118731,14.9907045 C204.08701,15.3800104 203.761805,15.6797945 203.371209,15.6797945 C200.339674,15.6797945 198.594391,16.7628358 197.738431,18.5776443 C197.475071,19.1360217 197.311429,19.7391533 197.230843,20.3548714 C197.175349,20.7788682 197.16526,21.1529514 197.180654,21.4432498 L197.188776,21.5856164 C197.188776,24.4009591 198.551613,26.1967875 200.888978,27.2545906 C201.72943,27.6349473 202.638149,27.8889632 203.548175,28.03837 C203.867079,28.0907271 204.162461,28.1261173 204.425991,28.1476696 C204.57995,28.1602608 204.685942,28.1654359 204.720722,28.1662808 L235.72256,28.1662808 Z" id="Stroke-29" fill="#2A2A2A"></path>
            </g>
        </g>
    </g>
</svg>